<?xml version="1.0" encoding="utf-8"?>
<svg xmlns="http://www.w3.org/2000/svg" xmlns:xlink="http://www.w3.org/1999/xlink">

  <symbol fill="#EF4836" fill-opacity=".8" viewBox="0 0 24 24" id="chart">
    <path d="M18.799 7.038c-.496-.535-.799-1.252-.799-2.038 0-1.656 1.344-3 3-3s3 1.344 3 3-1.344 3-3 3c-.146 0-.29-.01-.431-.031l-3.333 6.032c.475.53.764 1.231.764 1.999 0 1.656-1.344 3-3 3s-3-1.344-3-3c0-.583.167-1.127.455-1.587l-2.565-3.547c-.281.087-.58.134-.89.134l-.368-.022-3.355 6.069c.451.525.723 1.208.723 1.953 0 1.656-1.344 3-3 3s-3-1.344-3-3 1.344-3 3-3c.186 0 .367.017.543.049l3.298-5.967c-.52-.539-.841-1.273-.841-2.082 0-1.656 1.344-3 3-3s3 1.344 3 3c0 .617-.187 1.191-.507 1.669l2.527 3.495c.307-.106.637-.164.98-.164.164 0 .325.013.482.039l3.317-6.001zm-3.799 7.962c.552 0 1 .448 1 1s-.448 1-1 1-1-.448-1-1 .448-1 1-1zm-6-8c.552 0 1 .448 1 1s-.448 1-1 1-1-.448-1-1 .448-1 1-1z"/>
  </symbol>
  <symbol fill="#26C281" fill-opacity=".9" viewBox="0 0 24 24" id="marker">
    <path d="M5.829 21c-.412 1.165-1.524 2-2.829 2-1.656 0-3-1.344-3-3s1.344-3 3-3c1.305 0 2.417.835 2.829 2h3.342c.412-1.165 1.524-2 2.829-2 1.305 0 2.417.835 2.829 2h3.342c.412-1.165 1.524-2 2.829-2 1.656 0 3 1.344 3 3s-1.344 3-3 3c-1.305 0-2.417-.835-2.829-2h-3.342c-.412 1.165-1.524 2-2.829 2-1.305 0-2.417-.835-2.829-2h-3.342zm6.171-2c.552 0 1 .448 1 1s-.448 1-1 1-1-.448-1-1 .448-1 1-1zm0-18c-2.624 0-5 2.127-5 4.751 0 2.624 2.168 5.756 5 10.249 2.832-4.493 5-7.625 5-10.249 0-2.624-2.376-4.751-5-4.751zm0 7c-1.105 0-2-.895-2-2s.895-2 2-2 2 .895 2 2-.895 2-2 2z"/>
  </symbol>
  <symbol fill="#F27935" fill-opacity=".9" viewBox="0 0 24 24" id="diagram">
    <path d="M24 3.055l-6 1.221 1.716 1.708-5.351 5.358-3.001-3.002-7.336 7.242 1.41 1.418 5.922-5.834 2.991 2.993 6.781-6.762 1.667 1.66 1.201-6.002zm-16.69 6.477l-3.282-3.239 1.41-1.418 3.298 3.249-1.426 1.408zm15.49 3.287l1.2 6.001-6-1.221 1.716-1.708-2.13-2.133 1.411-1.408 2.136 2.129 1.667-1.66zm1.2 8.181v2h-24v-22h2v20h22z"/>
  </symbol>

</svg>
